<svg xmlns="http://www.w3.org/2000/svg" viewBox="45.00 -719.00 6486.00 729.00" fill="white">
  <g transform="scale(1 -1)"><path d="M521 471Q511 539 472.0 570.5Q433 602 365 602Q183 602 183 354Q183 105 365 105Q433 105 472.5 136.5Q512 168 522 235H660Q649 118 571.0 54.0Q493 -10 365 -10Q215 -10 130.0 83.5Q45 177 45 354Q45 531 130.5 624.0Q216 717 365 717Q444 717 507.5 688.5Q571 660 611.0 605.0Q651 550 659 471ZM996 -10Q876 -10 805.5 59.5Q735 129 735 259Q735 389 806.0 459.0Q877 529 996 529Q1075 529 1133.5 497.5Q1192 466 1225.0 406.0Q1258 346 1258 259Q1258 129 1186.5 59.5Q1115 -10 996 -10ZM996 95Q1124 95 1124 259Q1124 424 996 424Q869 424 869 259Q869 95 996 95ZM1365 519H1499V459Q1525 497 1554.0 513.0Q1583 529 1620 529Q1676 529 1712.5 507.0Q1749 485 1770 436H1769Q1796 481 1833.5 505.0Q1871 529 1925 529Q1959 529 1992.5 519.5Q2026 510 2053.5 486.5Q2081 463 2097.5 422.5Q2114 382 2114 319V0H1980V310Q1980 369 1961.5 397.0Q1943 425 1896 425Q1846 425 1826.0 393.0Q1806 361 1806 295V0H1672V310Q1672 369 1654.5 397.0Q1637 425 1592 425Q1540 425 1519.5 393.0Q1499 361 1499 295V0H1365ZM2250 519H2384V459Q2410 497 2439.0 513.0Q2468 529 2505 529Q2561 529 2597.5 507.0Q2634 485 2655 436H2654Q2681 481 2718.5 505.0Q2756 529 2810 529Q2844 529 2877.5 519.5Q2911 510 2938.5 486.5Q2966 463 2982.5 422.5Q2999 382 2999 319V0H2865V310Q2865 369 2846.5 397.0Q2828 425 2781 425Q2731 425 2711.0 393.0Q2691 361 2691 295V0H2557V310Q2557 369 2539.5 397.0Q2522 425 2477 425Q2425 425 2404.5 393.0Q2384 361 2384 295V0H2250ZM3363 -10Q3243 -10 3172.5 59.5Q3102 129 3102 259Q3102 389 3173.0 459.0Q3244 529 3363 529Q3442 529 3500.5 497.5Q3559 466 3592.0 406.0Q3625 346 3625 259Q3625 129 3553.5 59.5Q3482 -10 3363 -10ZM3363 95Q3491 95 3491 259Q3491 424 3363 424Q3236 424 3236 259Q3236 95 3363 95ZM3866 0H3732V519H3866L3865 458Q3888 495 3920.0 512.0Q3952 529 4000 529Q4088 529 4141.5 480.0Q4195 431 4195 318V0H4061V319Q4061 375 4038.5 399.5Q4016 424 3971 424Q3918 424 3892.0 396.0Q3866 368 3866 305ZM4336 707H4792V592H4474V410H4760V295H4474V0H4336ZM4946 308H5234Q5231 360 5203.0 393.5Q5175 427 5123 427Q5059 427 5030.5 388.0Q5002 349 5002 257Q5002 166 5030.0 129.0Q5058 92 5130 92Q5181 92 5201.5 106.0Q5222 120 5226 147H5364Q5357 77 5300.5 33.5Q5244 -10 5130 -10Q5003 -10 4936.0 58.5Q4869 127 4869 257Q4869 388 4936.0 458.5Q5003 529 5123 529Q5239 529 5303.5 458.5Q5368 388 5368 257V217H4945ZM5518 308H5806Q5803 360 5775.0 393.5Q5747 427 5695 427Q5631 427 5602.5 388.0Q5574 349 5574 257Q5574 166 5602.0 129.0Q5630 92 5702 92Q5753 92 5773.5 106.0Q5794 120 5798 147H5936Q5929 77 5872.5 33.5Q5816 -10 5702 -10Q5575 -10 5508.0 58.5Q5441 127 5441 257Q5441 388 5508.0 458.5Q5575 529 5695 529Q5811 529 5875.5 458.5Q5940 388 5940 257V217H5517ZM6397 719H6531V0H6397ZM6233 -10Q6136 -10 6074.5 57.5Q6013 125 6013 258Q6013 354 6043.0 413.5Q6073 473 6123.5 501.0Q6174 529 6233 529Q6311 529 6358.0 493.0Q6405 457 6426.0 396.0Q6447 335 6447 258Q6447 182 6426.0 121.5Q6405 61 6358.0 25.5Q6311 -10 6233 -10ZM6274 94Q6397 94 6397 259Q6397 425 6274 425Q6147 425 6147 259Q6147 94 6274 94Z"/></g>
</svg>
